<?xml version="1.0" encoding="UTF-8" ?>
<!DOCTYPE svg PUBLIC "-//W3C//DTD SVG 1.1//EN" "http://www.w3.org/Graphics/SVG/1.1/DTD/svg11.dtd">
<svg width="237pt" height="237pt" viewBox="0 0 1024 1024" version="1.1" xmlns="http://www.w3.org/2000/svg">
<g id="#f2f2f2ff">
<path fill="#f2f2f2" opacity="1.00" d=" M 257.51 57.60 C 269.15 48.22 284.00 42.38 299.06 42.90 C 424.04 42.89 549.01 42.91 673.99 42.90 C 692.99 42.96 712.00 42.79 731.00 43.00 C 747.17 44.46 762.78 52.28 773.41 64.61 C 781.02 73.33 786.30 84.13 788.22 95.58 C 789.49 102.29 789.08 109.15 789.14 115.94 C 789.21 205.29 789.01 294.64 789.24 383.99 C 789.40 400.99 789.24 418.00 789.30 435.01 C 789.20 443.33 789.76 451.75 788.09 459.97 C 785.51 473.96 777.87 486.84 767.16 496.14 C 745.98 513.24 724.93 530.51 703.79 547.67 C 683.68 563.99 663.56 580.30 643.55 596.75 C 613.75 620.99 583.96 645.24 554.19 669.52 C 540.23 680.89 526.12 692.08 512.40 703.73 C 510.00 702.55 508.09 700.65 506.04 698.99 C 493.80 689.01 481.58 679.01 469.31 669.07 C 439.60 645.03 410.04 620.80 380.36 596.74 C 360.42 580.23 340.29 563.97 320.18 547.68 C 298.64 530.27 277.35 512.55 255.64 495.37 C 242.71 483.60 234.81 466.48 234.70 448.94 C 234.67 427.21 234.60 405.46 234.70 383.73 C 235.02 356.50 234.75 329.25 234.84 302.02 C 234.84 239.34 234.83 176.65 234.84 113.97 C 234.87 108.98 234.71 103.98 235.06 98.99 C 236.82 82.96 245.26 67.98 257.51 57.60 M 492.55 129.35 C 474.64 131.67 457.01 136.37 440.36 143.38 C 399.14 161.00 364.11 193.39 344.36 233.73 C 316.99 286.87 317.10 352.97 344.29 406.17 C 360.78 438.93 386.67 466.98 418.36 485.51 C 453.18 506.11 494.61 515.09 534.84 511.23 C 574.50 508.20 613.79 492.99 643.05 465.67 C 656.52 452.63 668.35 437.77 677.16 421.18 C 698.73 380.75 704.49 332.91 697.11 287.99 C 636.69 288.02 576.27 287.98 515.85 288.01 C 515.83 311.42 515.83 334.83 515.85 358.24 C 550.30 358.27 584.74 358.24 619.19 358.25 C 617.10 371.20 611.90 383.65 604.36 394.38 C 598.11 403.35 589.91 410.68 581.18 417.15 C 581.64 417.59 582.57 418.46 583.03 418.89 C 582.52 418.47 581.50 417.62 580.99 417.19 C 567.70 425.75 552.65 431.55 536.99 433.81 C 517.58 437.23 497.34 435.74 478.71 429.23 C 461.01 422.66 444.94 411.69 432.30 397.65 C 421.54 385.77 413.68 371.54 408.34 356.48 C 400.47 332.93 400.46 306.95 408.38 283.41 C 416.66 258.30 433.79 236.23 456.02 221.93 C 472.56 211.34 491.96 205.11 511.62 204.47 C 539.95 202.70 568.72 213.32 589.19 232.97 C 607.65 214.73 626.03 196.38 644.27 177.93 C 632.59 167.20 619.53 158.03 605.72 150.25 C 571.47 131.43 531.20 125.03 492.55 129.35 Z" />
</g>
<g id="#ea4335ff">
<path fill="#ea4335" opacity="1.00" d=" M 492.55 129.35 C 531.20 125.03 571.47 131.43 605.72 150.25 C 619.53 158.03 632.59 167.20 644.27 177.93 C 626.03 196.38 607.65 214.73 589.19 232.97 C 568.72 213.32 539.95 202.70 511.62 204.47 C 491.96 205.11 472.56 211.34 456.02 221.93 C 433.79 236.23 416.66 258.30 408.38 283.41 C 387.08 266.80 365.75 250.23 344.36 233.73 C 364.11 193.39 399.14 161.00 440.36 143.38 C 457.01 136.37 474.64 131.67 492.55 129.35 Z" />
</g>
<g id="#fbbc05ff">
<path fill="#fbbc05" opacity="1.00" d=" M 344.29 406.17 C 317.10 352.97 316.99 286.87 344.36 233.73 C 365.75 250.23 387.08 266.80 408.38 283.41 C 400.46 306.95 400.47 332.93 408.34 356.48 C 386.98 373.03 365.64 389.61 344.29 406.17 Z" />
</g>
<g id="#4285f4ff">
<path fill="#4285f4" opacity="1.00" d=" M 515.85 288.01 C 576.27 287.98 636.69 288.02 697.11 287.99 C 704.49 332.91 698.73 380.75 677.16 421.18 C 668.35 437.77 656.52 452.63 643.05 465.67 C 623.02 450.11 603.00 434.53 583.03 418.89 C 582.57 418.46 581.64 417.59 581.18 417.15 C 589.91 410.68 598.11 403.35 604.36 394.38 C 611.90 383.65 617.10 371.20 619.19 358.25 C 584.74 358.24 550.30 358.27 515.85 358.24 C 515.83 334.83 515.83 311.42 515.85 288.01 Z" />
</g>
<g id="#34a853ff">
<path fill="#34a853" opacity="1.00" d=" M 344.29 406.17 C 365.64 389.61 386.98 373.03 408.34 356.48 C 413.68 371.54 421.54 385.77 432.30 397.65 C 444.94 411.69 461.01 422.66 478.71 429.23 C 497.34 435.74 517.58 437.23 536.99 433.81 C 552.65 431.55 567.70 425.75 580.99 417.19 C 581.50 417.62 582.52 418.47 583.03 418.89 C 603.00 434.53 623.02 450.11 643.05 465.67 C 613.79 492.99 574.50 508.20 534.84 511.23 C 494.61 515.09 453.18 506.11 418.36 485.51 C 386.67 466.98 360.78 438.93 344.29 406.17 Z" />
</g>
<g id="#72a4f7ff">
<path fill="#72a4f7" opacity="1.00" d=" M 95.02 385.05 C 100.93 383.81 107.00 384.02 113.01 384.00 C 146.35 384.00 179.68 384.00 213.02 384.01 C 212.59 385.75 212.16 387.49 211.74 389.23 C 180.49 389.48 149.24 389.34 117.99 389.37 C 109.03 389.49 99.88 388.72 91.17 391.36 C 77.31 394.63 64.96 403.09 56.12 414.14 C 51.24 420.14 48.43 427.40 45.15 434.31 C 45.03 433.86 44.80 432.96 44.68 432.51 C 50.06 408.56 71.03 389.48 95.02 385.05 Z" />
</g>
<g id="#6995e9ff">
<path fill="#6995e9" opacity="1.00" d=" M 213.02 384.01 C 220.16 384.07 227.31 383.82 234.45 384.18 C 234.04 385.69 233.83 387.25 233.60 388.80 C 231.78 389.00 229.96 389.16 228.14 389.28 C 222.67 389.24 217.20 389.37 211.74 389.23 C 212.16 387.49 212.59 385.75 213.02 384.01 Z" />
</g>
<g id="#457adeff">
<path fill="#457ade" opacity="1.00" d=" M 234.45 384.18 L 234.70 383.73 C 234.60 405.46 234.67 427.21 234.70 448.94 C 234.81 466.48 242.71 483.60 255.64 495.37 C 277.35 512.55 298.64 530.27 320.18 547.68 C 319.99 555.36 319.96 563.05 320.01 570.73 C 320.02 572.20 320.02 573.67 320.02 575.15 C 317.88 574.92 315.62 574.54 314.19 572.75 C 308.90 567.20 301.85 563.78 296.76 558.01 C 292.07 554.12 286.94 550.74 282.35 546.72 C 281.84 546.06 281.43 545.36 281.01 544.67 C 275.40 542.26 271.27 537.37 267.08 533.10 C 264.26 531.30 261.00 529.75 259.31 526.69 C 258.37 524.84 257.36 523.01 255.82 521.59 C 255.20 517.28 251.87 513.59 247.66 512.52 C 245.56 512.16 243.43 512.21 241.32 512.17 C 238.83 506.91 234.93 502.42 233.03 496.87 C 230.23 491.31 229.68 485.00 227.54 479.21 C 225.78 474.89 226.42 470.11 225.35 465.63 C 224.04 460.14 225.09 454.53 224.66 449.00 C 223.35 440.72 223.87 432.31 223.89 423.98 C 225.70 413.41 224.28 402.66 224.90 392.02 C 224.76 390.15 226.87 389.90 228.14 389.28 C 229.96 389.16 231.78 389.00 233.60 388.80 C 233.83 387.25 234.04 385.69 234.45 384.18 Z" />
</g>
<g id="#4076ddff">
<path fill="#4076dd" opacity="1.00" d=" M 789.24 383.99 L 789.77 384.02 C 789.91 385.64 790.06 387.27 790.22 388.90 C 795.49 389.37 800.79 389.19 806.08 389.07 C 842.04 389.38 878.01 389.22 913.97 389.19 C 929.55 388.54 945.46 393.59 957.44 403.66 C 967.00 410.80 973.64 421.26 977.68 432.37 C 978.06 433.45 978.77 434.29 979.80 434.89 L 979.88 434.95 C 981.56 442.53 981.08 450.33 981.14 458.04 C 981.13 607.38 981.12 756.73 981.12 906.08 C 980.87 914.39 981.91 922.95 979.65 931.05 C 976.60 934.03 975.95 938.39 973.95 941.99 C 965.18 958.51 948.85 970.72 930.61 974.72 C 922.25 976.91 913.54 976.01 905.01 976.14 C 885.59 976.20 866.16 975.95 846.75 976.29 L 846.26 975.89 C 819.02 953.36 791.37 931.34 764.04 908.92 C 758.81 904.75 753.52 900.63 748.68 896.01 C 753.68 895.80 759.39 897.10 763.67 893.77 C 766.85 891.66 768.27 887.78 768.04 884.07 C 767.97 863.37 768.09 842.66 767.99 821.95 C 768.17 817.77 765.76 813.72 762.08 811.79 C 759.87 810.74 757.35 810.79 754.98 810.72 C 717.87 810.79 680.76 810.72 643.65 810.79 L 643.16 810.78 C 613.65 786.71 584.13 762.67 554.59 738.65 C 554.90 724.68 554.54 710.71 554.58 696.75 C 554.51 687.67 554.79 678.58 554.19 669.52 C 583.96 645.24 613.75 620.99 643.55 596.75 C 659.36 597.31 675.18 597.22 691.00 597.32 C 693.64 597.17 696.58 597.40 698.88 595.83 C 701.68 593.81 704.07 590.68 703.98 587.07 C 704.13 573.94 703.83 560.80 703.79 547.67 C 724.93 530.51 745.98 513.24 767.16 496.14 C 777.87 486.84 785.51 473.96 788.09 459.97 C 789.76 451.75 789.20 443.33 789.30 435.01 C 789.24 418.00 789.40 400.99 789.24 383.99 M 775.42 512.66 C 771.25 514.19 768.02 518.46 768.23 523.00 C 768.05 544.34 767.94 565.68 768.04 587.02 C 767.92 592.72 773.38 597.68 779.00 597.29 C 800.32 597.17 821.64 597.38 842.95 597.18 C 848.83 597.33 853.70 591.65 853.32 585.93 C 853.33 564.97 853.38 544.01 853.31 523.05 C 853.70 516.95 847.95 511.80 842.03 512.01 C 821.67 511.96 801.30 512.04 780.94 512.17 C 779.09 512.21 777.21 512.21 775.42 512.66 M 627.44 661.53 C 622.17 662.34 618.31 667.68 618.70 672.92 C 618.66 693.93 618.63 714.94 618.69 735.95 C 618.40 741.95 624.13 746.89 629.93 746.74 C 650.98 746.74 672.04 746.78 693.09 746.71 C 698.86 747.07 704.03 741.82 703.95 736.12 C 704.02 714.73 704.03 693.32 703.96 671.93 C 704.19 665.69 698.04 660.78 692.06 661.24 C 670.52 661.38 648.96 660.96 627.44 661.53 M 776.39 661.56 C 771.25 662.50 767.61 667.84 768.04 672.97 C 768.05 694.02 767.96 715.07 768.04 736.12 C 767.85 741.93 773.29 746.76 778.93 746.73 C 798.95 746.81 818.97 746.75 839.00 746.82 C 842.78 746.85 847.21 746.93 849.96 743.84 C 852.80 741.40 853.58 737.56 853.40 733.99 C 853.32 713.33 853.42 692.68 853.31 672.03 C 853.60 665.56 847.12 660.66 840.99 661.23 C 819.46 661.45 797.90 660.92 776.39 661.56 Z" />
</g>
<g id="#577ed4ff">
<path fill="#577ed4" opacity="1.00" d=" M 789.77 384.02 C 795.19 384.00 800.61 383.99 806.04 384.01 C 806.04 385.69 806.05 387.38 806.08 389.07 C 800.79 389.19 795.49 389.37 790.22 388.90 C 790.06 387.27 789.91 385.64 789.77 384.02 Z" />
</g>
<g id="#5d89deff">
<path fill="#5d89de" opacity="1.00" d=" M 806.04 384.01 C 842.70 384.00 879.36 384.00 916.02 384.00 C 930.74 383.63 945.56 388.70 956.99 398.00 C 968.69 407.02 976.83 420.44 979.80 434.89 C 978.77 434.29 978.06 433.45 977.68 432.37 C 973.64 421.26 967.00 410.80 957.44 403.66 C 945.46 393.59 929.55 388.54 913.97 389.19 C 878.01 389.22 842.04 389.38 806.08 389.07 C 806.05 387.38 806.04 385.69 806.04 384.01 Z" />
</g>
<g id="#4688f4ff">
<path fill="#4688f4" opacity="1.00" d=" M 91.17 391.36 C 99.88 388.72 109.03 389.49 117.99 389.37 C 149.24 389.34 180.49 389.48 211.74 389.23 C 217.20 389.37 222.67 389.24 228.14 389.28 C 226.87 389.90 224.76 390.15 224.90 392.02 C 224.28 402.66 225.70 413.41 223.89 423.98 C 223.87 432.31 223.35 440.72 224.66 449.00 C 225.09 454.53 224.04 460.14 225.35 465.63 C 226.42 470.11 225.78 474.89 227.54 479.21 C 229.68 485.00 230.23 491.31 233.03 496.87 C 234.93 502.42 238.83 506.91 241.32 512.17 C 221.20 512.17 201.07 511.67 180.96 512.04 C 175.22 511.93 170.40 517.40 170.64 523.02 C 170.58 544.02 170.62 565.01 170.62 586.01 C 170.12 591.85 175.19 597.38 181.04 597.31 C 202.36 597.27 223.70 597.36 245.02 597.26 C 251.09 597.68 256.33 592.01 256.03 586.06 C 256.18 564.57 255.77 543.08 255.82 521.59 C 257.36 523.01 258.37 524.84 259.31 526.69 C 261.00 529.75 264.26 531.30 267.08 533.10 C 271.27 537.37 275.40 542.26 281.01 544.67 C 281.43 545.36 281.84 546.06 282.35 546.72 C 286.94 550.74 292.07 554.12 296.76 558.01 C 301.85 563.78 308.90 567.20 314.19 572.75 C 315.62 574.54 317.88 574.92 320.02 575.15 C 320.11 579.74 319.71 584.36 320.20 588.94 C 321.07 593.83 326.00 597.70 330.98 597.30 C 337.33 597.28 343.69 597.17 350.04 597.25 C 358.73 597.37 367.42 597.20 376.11 597.26 C 369.19 598.24 361.91 596.43 355.23 598.81 C 358.66 602.42 362.89 605.13 366.69 608.33 C 386.04 624.33 405.54 640.15 425.09 655.91 C 429.80 659.22 432.02 665.02 436.91 668.15 C 440.57 670.37 443.57 673.47 447.25 675.66 C 448.25 676.17 448.42 677.37 448.94 678.28 C 450.18 678.68 451.42 679.05 452.68 679.45 C 453.07 680.30 453.47 681.16 453.89 682.03 C 454.94 682.56 456.06 683.05 456.86 683.97 C 460.26 687.61 464.36 690.77 469.15 692.35 C 469.14 694.56 469.19 696.76 469.32 698.98 C 469.66 711.34 469.16 723.72 469.36 736.10 C 469.27 739.88 471.52 743.42 474.79 745.23 C 477.55 747.00 480.95 746.77 484.08 746.81 C 504.07 746.67 524.06 746.87 544.05 746.71 C 548.97 746.99 552.69 743.12 554.53 738.94 L 554.59 738.65 C 584.13 762.67 613.65 786.71 643.16 810.78 C 517.79 810.73 392.43 810.70 267.07 810.76 C 260.96 810.27 255.68 815.95 256.00 821.93 C 255.98 842.96 255.94 864.01 256.02 885.04 C 255.66 891.41 261.89 896.50 268.01 896.01 C 427.83 896.00 587.66 895.98 747.48 895.99 C 747.78 896.00 748.38 896.00 748.68 896.01 C 753.52 900.63 758.81 904.75 764.04 908.92 C 791.37 931.34 819.02 953.36 846.26 975.89 C 599.51 975.99 352.76 975.99 106.01 975.99 C 80.75 975.97 56.36 959.28 47.29 935.69 C 46.68 933.94 45.63 932.41 44.33 931.13 C 43.03 926.54 42.89 921.73 42.88 916.99 C 42.88 759.99 42.86 602.99 42.87 445.99 C 42.72 441.31 43.41 436.65 44.58 432.13 L 44.68 432.51 C 44.80 432.96 45.03 433.86 45.15 434.31 C 48.43 427.40 51.24 420.14 56.12 414.14 C 64.96 403.09 77.31 394.63 91.17 391.36 M 179.36 661.46 C 174.44 662.16 170.58 667.02 170.68 671.95 C 170.64 693.30 170.66 714.66 170.69 736.02 C 170.42 742.01 176.15 746.93 181.95 746.74 C 202.31 746.78 222.68 746.74 243.05 746.77 C 245.52 746.70 248.14 746.77 250.38 745.56 C 254.03 743.42 256.34 739.29 256.03 735.03 C 256.00 713.98 256.14 692.93 255.99 671.88 C 256.20 665.61 249.97 660.73 243.97 661.23 C 222.44 661.38 200.88 660.93 179.36 661.46 M 328.36 661.52 C 323.14 662.43 319.57 667.85 319.96 673.01 C 319.97 694.03 319.90 715.06 320.02 736.08 C 319.79 742.35 326.01 747.24 332.01 746.76 C 353.02 746.71 374.03 746.85 395.03 746.69 C 400.68 746.78 405.51 741.46 405.33 735.90 C 405.42 715.94 405.34 695.97 405.33 676.00 C 405.31 672.97 405.53 669.73 404.04 666.97 C 401.81 663.18 397.38 660.96 393.01 661.29 C 371.46 661.43 349.88 660.84 328.36 661.52 Z" />
</g>
<g id="#a6c5faff">
<path fill="#a6c5fa" opacity="1.00" d=" M 170.64 523.02 C 170.40 517.40 175.22 511.93 180.96 512.04 C 201.07 511.67 221.20 512.17 241.32 512.17 C 243.43 512.21 245.56 512.16 247.66 512.52 C 251.87 513.59 255.20 517.28 255.82 521.59 C 255.77 543.08 256.18 564.57 256.03 586.06 C 256.33 592.01 251.09 597.68 245.02 597.26 C 223.70 597.36 202.36 597.27 181.04 597.31 C 175.19 597.38 170.12 591.85 170.62 586.01 C 170.62 565.01 170.58 544.02 170.64 523.02 Z" />
</g>
<g id="#89a5e2ff">
<path fill="#89a5e2" opacity="1.00" d=" M 775.42 512.66 C 777.21 512.21 779.09 512.21 780.94 512.17 C 801.30 512.04 821.67 511.96 842.03 512.01 C 847.95 511.80 853.70 516.95 853.31 523.05 C 853.38 544.01 853.33 564.97 853.32 585.93 C 853.70 591.65 848.83 597.33 842.95 597.18 C 821.64 597.38 800.32 597.17 779.00 597.29 C 773.38 597.68 767.92 592.72 768.04 587.02 C 767.94 565.68 768.05 544.34 768.23 523.00 C 768.02 518.46 771.25 514.19 775.42 512.66 Z" />
<path fill="#89a5e2" opacity="1.00" d=" M 627.44 661.53 C 648.96 660.96 670.52 661.38 692.06 661.24 C 698.04 660.78 704.19 665.69 703.96 671.93 C 704.03 693.32 704.02 714.73 703.95 736.12 C 704.03 741.82 698.86 747.07 693.09 746.71 C 672.04 746.78 650.98 746.74 629.93 746.74 C 624.13 746.89 618.40 741.95 618.69 735.95 C 618.63 714.94 618.66 693.93 618.70 672.92 C 618.31 667.68 622.17 662.34 627.44 661.53 Z" />
</g>
<g id="#859edcff">
<path fill="#859edc" opacity="1.00" d=" M 320.18 547.68 C 340.29 563.97 360.42 580.23 380.36 596.74 C 378.94 596.94 377.53 597.11 376.11 597.26 C 367.42 597.20 358.73 597.37 350.04 597.25 C 349.02 594.71 347.62 592.26 345.31 590.70 C 336.69 584.28 328.93 576.75 320.01 570.73 C 319.96 563.05 319.99 555.36 320.18 547.68 Z" />
</g>
<g id="#778fd0ff">
<path fill="#778fd0" opacity="1.00" d=" M 643.55 596.75 C 663.56 580.30 683.68 563.99 703.79 547.67 C 703.83 560.80 704.13 573.94 703.98 587.07 C 704.07 590.68 701.68 593.81 698.88 595.83 C 696.58 597.40 693.64 597.17 691.00 597.32 C 675.18 597.22 659.36 597.31 643.55 596.75 Z" />
</g>
<g id="#93b0e9ff">
<path fill="#93b0e9" opacity="1.00" d=" M 320.01 570.73 C 328.93 576.75 336.69 584.28 345.31 590.70 C 347.62 592.26 349.02 594.71 350.04 597.25 C 343.69 597.17 337.33 597.28 330.98 597.30 C 326.00 597.70 321.07 593.83 320.20 588.94 C 319.71 584.36 320.11 579.74 320.02 575.15 C 320.02 573.67 320.02 572.20 320.01 570.73 Z" />
</g>
<g id="#4174d9ff">
<path fill="#4174d9" opacity="1.00" d=" M 376.11 597.26 C 377.53 597.11 378.94 596.94 380.36 596.74 C 410.04 620.80 439.60 645.03 469.31 669.07 C 469.48 676.83 469.19 684.59 469.15 692.35 C 464.36 690.77 460.26 687.61 456.86 683.97 C 456.06 683.05 454.94 682.56 453.89 682.03 C 453.47 681.16 453.07 680.30 452.68 679.45 C 451.42 679.05 450.18 678.68 448.94 678.28 C 448.42 677.37 448.25 676.17 447.25 675.66 C 443.57 673.47 440.57 670.37 436.91 668.15 C 432.02 665.02 429.80 659.22 425.09 655.91 C 405.54 640.15 386.04 624.33 366.69 608.33 C 362.89 605.13 358.66 602.42 355.23 598.81 C 361.91 596.43 369.19 598.24 376.11 597.26 Z" />
</g>
<g id="#a5c5faff">
<path fill="#a5c5fa" opacity="1.00" d=" M 179.36 661.46 C 200.88 660.93 222.44 661.38 243.97 661.23 C 249.97 660.73 256.20 665.61 255.99 671.88 C 256.14 692.93 256.00 713.98 256.03 735.03 C 256.34 739.29 254.03 743.42 250.38 745.56 C 248.14 746.77 245.52 746.70 243.05 746.77 C 222.68 746.74 202.31 746.78 181.95 746.74 C 176.15 746.93 170.42 742.01 170.69 736.02 C 170.66 714.66 170.64 693.30 170.68 671.95 C 170.58 667.02 174.44 662.16 179.36 661.46 Z" />
<path fill="#a5c5fa" opacity="1.00" d=" M 328.36 661.52 C 349.88 660.84 371.46 661.43 393.01 661.29 C 397.38 660.96 401.81 663.18 404.04 666.97 C 405.53 669.73 405.31 672.97 405.33 676.00 C 405.34 695.97 405.42 715.94 405.33 735.90 C 405.51 741.46 400.68 746.78 395.03 746.69 C 374.03 746.85 353.02 746.71 332.01 746.76 C 326.01 747.24 319.79 742.35 320.02 736.08 C 319.90 715.06 319.97 694.03 319.96 673.01 C 319.57 667.85 323.14 662.43 328.36 661.52 Z" />
</g>
<g id="#8ca7e5ff">
<path fill="#8ca7e5" opacity="1.00" d=" M 776.39 661.56 C 797.90 660.92 819.46 661.45 840.99 661.23 C 847.12 660.66 853.60 665.56 853.31 672.03 C 853.42 692.68 853.32 713.33 853.40 733.99 C 853.58 737.56 852.80 741.40 849.96 743.84 C 847.21 746.93 842.78 746.85 839.00 746.82 C 818.97 746.75 798.95 746.81 778.93 746.73 C 773.29 746.76 767.85 741.93 768.04 736.12 C 767.96 715.07 768.05 694.02 768.04 672.97 C 767.61 667.84 771.25 662.50 776.39 661.56 Z" />
</g>
<g id="#829bdaff">
<path fill="#829bda" opacity="1.00" d=" M 469.31 669.07 C 481.58 679.01 493.80 689.01 506.04 698.99 C 508.09 700.65 510.00 702.55 512.40 703.73 C 516.57 708.07 521.83 711.15 526.13 715.36 C 518.31 718.39 509.82 717.90 501.62 717.40 C 493.06 715.88 485.16 711.79 478.02 706.94 C 474.81 704.67 471.34 702.46 469.32 698.98 C 469.19 696.76 469.14 694.56 469.15 692.35 C 469.19 684.59 469.48 676.83 469.31 669.07 Z" />
</g>
<g id="#748cceff">
<path fill="#748cce" opacity="1.00" d=" M 512.40 703.73 C 526.12 692.08 540.23 680.89 554.19 669.52 C 554.79 678.58 554.51 687.67 554.58 696.75 C 553.69 702.21 547.57 703.62 544.54 707.56 C 540.43 709.97 536.26 712.37 532.03 714.60 C 530.71 716.06 528.60 715.77 526.84 716.05 L 526.13 715.36 C 521.83 711.15 516.57 708.07 512.40 703.73 Z" />
</g>
<g id="#829ddbff">
<path fill="#829ddb" opacity="1.00" d=" M 554.58 696.75 C 554.54 710.71 554.90 724.68 554.59 738.65 L 554.53 738.94 C 546.03 730.48 535.59 724.24 526.84 716.05 C 528.60 715.77 530.71 716.06 532.03 714.60 C 536.26 712.37 540.43 709.97 544.54 707.56 C 547.57 703.62 553.69 702.21 554.58 696.75 Z" />
</g>
<g id="#a1bff7ff">
<path fill="#a1bff7" opacity="1.00" d=" M 469.32 698.98 C 471.34 702.46 474.81 704.67 478.02 706.94 C 485.16 711.79 493.06 715.88 501.62 717.40 C 509.82 717.90 518.31 718.39 526.13 715.36 L 526.84 716.05 C 535.59 724.24 546.03 730.48 554.53 738.94 C 552.69 743.12 548.97 746.99 544.05 746.71 C 524.06 746.87 504.07 746.67 484.08 746.81 C 480.95 746.77 477.55 747.00 474.79 745.23 C 471.52 743.42 469.27 739.88 469.36 736.10 C 469.16 723.72 469.66 711.34 469.32 698.98 Z" />
</g>
<g id="#a4c4faff">
<path fill="#a4c4fa" opacity="1.00" d=" M 256.00 821.93 C 255.68 815.95 260.96 810.27 267.07 810.76 C 392.43 810.70 517.79 810.73 643.16 810.78 L 643.65 810.79 C 651.63 818.41 660.74 824.74 669.10 831.94 C 690.28 849.09 711.40 866.30 732.59 883.44 C 737.53 887.64 742.88 891.39 747.48 895.99 C 587.66 895.98 427.83 896.00 268.01 896.01 C 261.89 896.50 255.66 891.41 256.02 885.04 C 255.94 864.01 255.98 842.96 256.00 821.93 Z" />
</g>
<g id="#8eabe7ff">
<path fill="#8eabe7" opacity="1.00" d=" M 643.65 810.79 C 680.76 810.72 717.87 810.79 754.98 810.72 C 757.35 810.79 759.87 810.74 762.08 811.79 C 765.76 813.72 768.17 817.77 767.99 821.95 C 768.09 842.66 767.97 863.37 768.04 884.07 C 768.27 887.78 766.85 891.66 763.67 893.77 C 759.39 897.10 753.68 895.80 748.68 896.01 C 748.38 896.00 747.78 896.00 747.48 895.99 C 742.88 891.39 737.53 887.64 732.59 883.44 C 711.40 866.30 690.28 849.09 669.10 831.94 C 660.74 824.74 651.63 818.41 643.65 810.79 Z" />
</g>
<g id="#3e74deff">
<path fill="#3e74de" opacity="1.00" d=" M 44.33 931.13 C 45.63 932.41 46.68 933.94 47.29 935.69 C 56.36 959.28 80.75 975.97 106.01 975.99 C 352.76 975.99 599.51 975.99 846.26 975.89 L 846.75 976.29 C 848.54 977.89 850.29 979.55 852.15 981.09 C 603.44 981.05 354.72 981.10 106.01 981.07 C 77.16 981.63 49.90 959.39 44.33 931.13 Z" />
</g>
<g id="#396ed9ff">
<path fill="#396ed9" opacity="1.00" d=" M 973.95 941.99 C 975.95 938.39 976.60 934.03 979.65 931.05 C 974.28 958.00 949.35 979.37 921.99 981.03 C 898.71 981.14 875.43 981.02 852.15 981.09 C 850.29 979.55 848.54 977.89 846.75 976.29 C 866.16 975.95 885.59 976.20 905.01 976.14 C 913.54 976.01 922.25 976.91 930.61 974.72 C 948.85 970.72 965.18 958.51 973.95 941.99 Z" />
</g>
</svg>
